C:\Users\r0593348\3dpredictsim\Results\Batchsim_tmt_linear\Pog_s1_tmt_aCst_d05_k1000_ig24_pas_GRF.mot
nRows=27
nColumns=19

name C:\Users\r0593348\3dpredictsim\Results\Batchsim_tmt_linear\Pog_s1_tmt_aCst_d05_k1000_ig24_pas_GRF.mot
datacolumns 19
datarows 27
range 0.5527431105 0.8401695280
endheader
time 	ground_force_vx	ground_force_vy	ground_force_vz	ground_force_px	ground_force_py	ground_force_pz	1_ground_force_vx	1_ground_force_vy	1_ground_force_vz	1_ground_force_px	1_ground_force_py	1_ground_force_pz	ground_torque_x	ground_torque_y	ground_torque_z	1_ground_torque_x	1_ground_torque_y	1_ground_torque_z
        0.5527431105	       96.0529190778	      511.8310110620	        3.9757773593	        0.3774940656	        0.0000000000	        0.0372922784	      -91.9196060253	       84.4490136384	      -37.7761339850	        0.8661949206	        0.0000000000	       -0.0383320353	        0.0000000000	        0.0000000000	        0.0000000000	        0.0000000000	        0.0000000000	        0.0000000000	
        0.5637979727	       79.6348968507	      432.3814567378	        8.4408585551	        0.3808614050	        0.0000000000	        0.0364491457	      -83.2020616314	      179.6839544362	      -75.6317915095	        0.8723595617	        0.0000000000	       -0.0366904933	        0.0000000000	        0.0000000000	        0.0000000000	        0.0000000000	        0.0000000000	        0.0000000000	
        0.5748528349	       63.5199122740	      348.7185813124	        7.0765412566	        0.3858445324	        0.0000000000	        0.0347787689	      -37.3581328656	      322.0093763042	      -16.1238472497	        0.8759113877	        0.0000000000	       -0.0346887116	        0.0000000000	        0.0000000000	        0.0000000000	        0.0000000000	        0.0000000000	        0.0000000000	
        0.5859076971	       42.2335906428	      259.0983766705	        4.5357536435	        0.3938742406	        0.0000000000	        0.0316200286	      -38.6556967047	      455.5995615853	        0.3297535492	        0.8792409123	        0.0000000000	       -0.0350034327	        0.0000000000	        0.0000000000	        0.0000000000	        0.0000000000	        0.0000000000	        0.0000000000	
        0.5969625594	       18.7896175391	      170.0760022225	        8.6126939399	        0.4082452777	        0.0000000000	        0.0253012211	      -72.1984052939	      611.8761810389	        5.5434457665	        0.8868701598	        0.0000000000	       -0.0373881612	        0.0000000000	        0.0000000000	        0.0000000000	        0.0000000000	        0.0000000000	        0.0000000000	
        0.6080174216	        3.5999975303	      132.2262872254	       13.0659259245	        0.4148936236	        0.0000000000	        0.0219361397	      -96.8421235959	      735.8782341857	        9.6252866654	        0.8932159697	        0.0000000000	       -0.0392969641	        0.0000000000	        0.0000000000	        0.0000000000	        0.0000000000	        0.0000000000	        0.0000000000	
        0.6190722838	        1.5022667946	      101.3503136732	       13.5923539146	        0.4154360801	        0.0000000000	        0.0220173512	     -104.8833295359	      794.9709397409	       11.6744251918	        0.8976752160	        0.0000000000	       -0.0405118923	        0.0000000000	        0.0000000000	        0.0000000000	        0.0000000000	        0.0000000000	        0.0000000000	
        0.6301271460	       -2.5698742698	       65.3880845790	       12.1505880825	        0.4159118184	        0.0000000000	        0.0220372496	     -102.1777824022	      805.3704780456	       12.2479244463	        0.9010025832	        0.0000000000	       -0.0412810596	        0.0000000000	        0.0000000000	        0.0000000000	        0.0000000000	        0.0000000000	        0.0000000000	
        0.6411820082	       -8.1253234770	       26.6414277347	        5.8996890128	        0.4155842364	        0.0000000000	        0.0216759101	      -95.2553830955	      794.6442354023	       12.4010072919	        0.9039344937	        0.0000000000	       -0.0417497887	        0.0000000000	        0.0000000000	        0.0000000000	        0.0000000000	        0.0000000000	        0.0000000000	
        0.6522368704	        0.0867889923	       -0.0849263031	       -0.0020133876	        0.0000000000	        0.0000000000	        0.0000000000	      -86.1111296881	      780.3889631957	       13.2870663198	        0.9070883078	        0.0000000000	       -0.0419906586	        0.0000000000	        0.0000000000	        0.0000000000	        0.0000000000	        0.0000000000	        0.0000000000	
        0.6632917326	        0.0001811613	       -0.0001450261	        0.0000096362	        0.0000000000	        0.0000000000	        0.0000000000	      -74.7731347920	      758.0766019803	       14.2091901710	        0.9103906954	        0.0000000000	       -0.0421200144	        0.0000000000	        0.0000000000	        0.0000000000	        0.0000000000	        0.0000000000	        0.0000000000	
        0.6743465948	        0.0000815786	       -0.0000566457	        0.0000058099	        0.0000000000	        0.0000000000	        0.0000000000	      -64.8803589459	      732.6841884700	       14.6752221119	        0.9143770859	        0.0000000000	       -0.0421593243	        0.0000000000	        0.0000000000	        0.0000000000	        0.0000000000	        0.0000000000	        0.0000000000	
        0.6854014570	        0.0008650894	       -0.0005382333	        0.0000687853	        0.0000000000	        0.0000000000	        0.0000000000	      -56.2784204377	      707.6801795604	       15.1632642255	        0.9189514008	        0.0000000000	       -0.0420941449	        0.0000000000	        0.0000000000	        0.0000000000	        0.0000000000	        0.0000000000	        0.0000000000	
        0.6964563193	        0.0026832292	       -0.0015294569	        0.0002263672	        0.0000000000	        0.0000000000	        0.0000000000	      -47.6191336780	      681.3687533559	       15.7594160392	        0.9235622816	        0.0000000000	       -0.0420470493	        0.0000000000	        0.0000000000	        0.0000000000	        0.0000000000	        0.0000000000	        0.0000000000	
        0.7075111815	       -0.0312455741	        0.0165616844	       -0.0027421840	        0.0000000000	        0.0000000000	        0.0000000000	      -39.5405288914	      655.9031786296	       16.2810561750	        0.9281108715	        0.0000000000	       -0.0420565370	        0.0000000000	        0.0000000000	        0.0000000000	        0.0000000000	        0.0000000000	        0.0000000000	
        0.7185660437	       -0.0212870037	        0.0106100340	       -0.0019229797	        0.0000000000	        0.0000000000	        0.0000000000	      -32.5596214986	      633.3610048455	       16.7183794787	        0.9325982059	        0.0000000000	       -0.0421098472	        0.0000000000	        0.0000000000	        0.0000000000	        0.0000000000	        0.0000000000	        0.0000000000	
        0.7296209059	       -0.0155069203	        0.0073340941	       -0.0014284098	        0.0000000000	        0.0000000000	        0.0000000000	      -26.5221308234	      614.6587258605	       17.2285358650	        0.9371457518	        0.0000000000	       -0.0421849671	        0.0000000000	        0.0000000000	        0.0000000000	        0.0000000000	        0.0000000000	        0.0000000000	
        0.7406757681	       -0.0147918574	        0.0066886680	       -0.0013763352	        0.0000000000	        0.0000000000	        0.0000000000	      -21.5325963708	      600.4849802608	       17.5134450452	        0.9420007077	        0.0000000000	       -0.0422592895	        0.0000000000	        0.0000000000	        0.0000000000	        0.0000000000	        0.0000000000	        0.0000000000	
        0.7517306303	       -0.0188683583	        0.0082061692	       -0.0017595415	        0.0000000000	        0.0000000000	        0.0000000000	      -17.9790685511	      590.8876307907	       17.5753265109	        0.9471799187	        0.0000000000	       -0.0423062349	        0.0000000000	        0.0000000000	        0.0000000000	        0.0000000000	        0.0000000000	        0.0000000000	
        0.7627854925	       -0.0307253629	        0.0129155086	       -0.0028475922	        0.0000000000	        0.0000000000	        0.0000000000	      -15.3400608557	      585.0645876884	       17.6141288471	        0.9526266844	        0.0000000000	       -0.0423085724	        0.0000000000	        0.0000000000	        0.0000000000	        0.0000000000	        0.0000000000	        0.0000000000	
        0.7738403547	       -0.0591604890	        0.0241414612	       -0.0054277759	        0.0000000000	        0.0000000000	        0.0000000000	      -14.0683042023	      582.3853735267	       17.6830518407	        0.9583057589	        0.0000000000	       -0.0422628928	        0.0000000000	        0.0000000000	        0.0000000000	        0.0000000000	        0.0000000000	        0.0000000000	
        0.7848952169	       -0.1235414289	        0.0491408672	       -0.0111904194	        0.0000000000	        0.0000000000	        0.0000000000	      -13.4206498516	      581.6698820957	       17.7066155755	        0.9640296387	        0.0000000000	       -0.0421797422	        0.0000000000	        0.0000000000	        0.0000000000	        0.0000000000	        0.0000000000	        0.0000000000	
        0.7959500791	       -0.2578690020	        0.1003674741	       -0.0230324667	        0.0000000000	        0.0000000000	        0.0000000000	      -12.3839237309	      581.7939240337	       17.8066996413	        0.9698303702	        0.0000000000	       -0.0420636123	        0.0000000000	        0.0000000000	        0.0000000000	        0.0000000000	        0.0000000000	        0.0000000000	
        0.8070049414	       -0.5009584390	        0.1915165353	       -0.0440524596	        0.0000000000	        0.0000000000	        0.0000000000	      -11.2123847308	      581.5744419272	       17.8137315307	        0.9756336197	        0.0000000000	       -0.0419254248	        0.0000000000	        0.0000000000	        0.0000000000	        0.0000000000	        0.0000000000	        0.0000000000	
        0.8180598036	       -0.8609923336	        0.3244752186	       -0.0743759385	        0.0000000000	        0.0000000000	        0.0000000000	       -9.7621448250	      580.3930943684	       17.6511856836	        0.9813649871	        0.0000000000	       -0.0417765574	        0.0000000000	        0.0000000000	        0.0000000000	        0.0000000000	        0.0000000000	        0.0000000000	
        0.8291146658	       -1.2774744893	        0.4761344314	       -0.1078787048	        0.0000000000	        0.0000000000	        0.0000000000	       -7.7922619663	      577.5421937746	       17.5132287755	        0.9869668007	        0.0000000000	       -0.0416248873	        0.0000000000	        0.0000000000	        0.0000000000	        0.0000000000	        0.0000000000	        0.0000000000	
        0.8401695280	       -1.6401825490	        0.6061459852	       -0.1342190900	        0.0000000000	        0.0000000000	        0.0000000000	       -5.1866017802	      572.6895682498	       17.1095502646	        0.9924985587	        0.0000000000	       -0.0414698082	        0.0000000000	        0.0000000000	        0.0000000000	        0.0000000000	        0.0000000000	        0.0000000000	
